<svg width="260" height="260" viewBox="0 0 260 260" xmlns="http://www.w3.org/2000/svg">
  <defs>
    <linearGradient id="orange" x1="0" y1="0" x2="1" y2="1">
      <stop offset="0%" stop-color="#FFB52E"/>
      <stop offset="100%" stop-color="#F4511E"/>
    </linearGradient>
  </defs>

  <circle cx="130" cy="130" r="112" fill="#FFF7EF"/>
  <circle cx="130" cy="130" r="78" fill="url(#orange)"/>

  <path d="M93 92v76M107 92v76M121 92v76"
        stroke="white" stroke-width="9" stroke-linecap="round"/>
  <path d="M93 94c0 19 28 19 28 0"
        fill="none" stroke="white" stroke-width="9"
        stroke-linecap="round"/>
  <path d="M151 91v78"
        stroke="white" stroke-width="9" stroke-linecap="round"/>
  <path d="M151 92c31 2 31 39 0 40"
        fill="none" stroke="white" stroke-width="9"
        stroke-linecap="round"/>

  <path d="M76 51h108"
        stroke="#F4511E" stroke-width="7" stroke-linecap="round"/>
  <path d="M91 39c7-18 28-22 39-8 11-14 32-10 39 8"
        fill="none" stroke="#F4511E" stroke-width="7"
        stroke-linecap="round"/>

  <path d="M39 116h35M27 131h47M39 146h35"
        stroke="#FF8A00" stroke-width="7" stroke-linecap="round"/>

  <text x="130" y="220" text-anchor="middle"
        font-family="Arial, sans-serif"
        font-size="22" font-weight="800"
        fill="#172033">ক্ষুধা লাগছে</text>

  <text x="130" y="242" text-anchor="middle"
        font-family="Arial, sans-serif"
        font-size="9" font-weight="700"
        letter-spacing="2"
        fill="#F4511E">FOOD DELIVERY</text>
</svg>
